<svg id="Слой_1" data-name="Слой 1" xmlns="http://www.w3.org/2000/svg" viewBox="0 0 192.94 192.94"><defs><style>.cls-1{fill:#41528c;}.cls-2{fill:#fff;}</style></defs><title>home-icon</title><circle class="cls-1" cx="96.47" cy="96.47" r="96.47"/><path class="cls-2" d="M374.26,192.84,321.87,141.9a4.08,4.08,0,0,0-5.83-.09l-50.38,52.38c-1.38,1.44-.89,4.15,1.09,6.05s4.72,2.29,6.09.86l5.77-5.88v59.42h28.46c-1.78-.82-2.3-3.36-2.3-10.36V215.87a10.35,10.35,0,0,1,10.35-10.36h9.74a10.36,10.36,0,0,1,10.36,10.36v28.41c0,8,0,9.94-2.9,10.36h29.07V194.42l5.89,5.61c1.44,1.39,4.16.92,6.09-1.07S375.7,194.23,374.26,192.84Z" transform="translate(-223.52 -102.83)"/></svg>