<svg id="next" xmlns="http://www.w3.org/2000/svg" viewBox="0 0 192.94 192.94"><defs><style>.cls-1{fill:#ddc92e;}.cls-2{fill:#fff;}</style></defs><title>next</title><circle class="cls-1" cx="96.47" cy="96.47" r="96.47"/><path class="cls-2" d="M550.51,226.23l-6.13-6.39L511,185.06a10.25,10.25,0,0,0-14.49-.31l-.93.9c3.4,5.08,5.59,18.34,6.37,33.42L466,219c-6.31,0-11.42,3.51-11.43,7.87v8.65c0,4.36,5.1,7.9,11.4,7.91l36,.07c-.82,16.34-3.39,30.92-8,35.89l.48.5c5.31,3.09,10.4,4.22,14.49.31l35.35-33.89,5.82-5.58A10.25,10.25,0,0,0,550.51,226.23Z" transform="translate(-407.5 -135.83)"/></svg>