<svg id="prev" xmlns="http://www.w3.org/2000/svg" viewBox="0 0 192.94 192.94"><defs><style>.cls-1{fill:#ddc92e;}.cls-2{fill:#fff;}</style></defs><title>prev</title><circle class="cls-1" cx="96.47" cy="96.47" r="96.47"/><path class="cls-2" d="M77.74,239.72l5.82,5.58,35.35,33.89c4.09,3.92,9.19,2.79,14.49-.31l.48-.5c-4.57-5-7.14-19.55-8-35.89l36-.07c6.3,0,11.41-3.55,11.4-7.91v-8.65c0-4.36-5.13-7.88-11.43-7.87l-36,.07c.78-15.08,3-28.34,6.37-33.42l-.93-.9a10.25,10.25,0,0,0-14.49.31L83.56,218.84l-6.13,6.39A10.25,10.25,0,0,0,77.74,239.72Z" transform="translate(-27.5 -134.83)"/></svg>